<svg xmlns="http://www.w3.org/2000/svg" viewBox="0 0 32 32" fill="none" shape-rendering="geometricPrecision">
  <rect width="32" height="32" rx="8" fill="#f6f4ef"/>
  <g transform="translate(4,4)">
    <path d="M4 4h8M12 4h8M4 12h8M12 12h8M12 4v8M12 12v8M20 4v8M20 12v8" stroke="#5c5a57" stroke-opacity="0.28" stroke-width="1.2" stroke-linecap="round"/>
    <path d="M4 4V20H20" stroke="#3f5d52" stroke-width="2.35" stroke-linecap="round" stroke-linejoin="round"/>
    <circle cx="12" cy="4" r="2" fill="none" stroke="#5c5a57" stroke-opacity="0.38" stroke-width="1.15"/>
    <circle cx="20" cy="4" r="2" fill="none" stroke="#5c5a57" stroke-opacity="0.38" stroke-width="1.15"/>
    <circle cx="12" cy="12" r="2" fill="none" stroke="#5c5a57" stroke-opacity="0.38" stroke-width="1.15"/>
    <circle cx="20" cy="12" r="2" fill="none" stroke="#5c5a57" stroke-opacity="0.38" stroke-width="1.15"/>
    <circle cx="4" cy="4" r="2.2" fill="#3f5d52"/>
    <circle cx="4" cy="12" r="2.2" fill="#3f5d52"/>
    <circle cx="4" cy="20" r="2.2" fill="#3f5d52"/>
    <circle cx="12" cy="20" r="2.2" fill="#3f5d52"/>
    <circle cx="20" cy="20" r="2.2" fill="#3f5d52"/>
  </g>
</svg>
